# xmcd
#
# Track frame offsets: 
#        150
#        18906
#        40308
#        60315
#        72317
#        98496
#        108746
#        119433
#        131344
#        144476
#        155698
#        169792
#        181215
#        193080
#        208444
#
# Disc length: 2937 seconds
#
# Revision: 0
# Processed by: cddbd v1.5.2PL0 Copyright (c) Steve Scherf et al.
# Submitted via: ExactAudioCopy v0.95b4
#
DISCID=d70b770f
DTITLE=Various Artist - Memories CD3
DYEAR=2008
DGENRE=Pop
TTITLE0=Lionel Richie - Hello
TTITLE1=Abba - Have A Dream
TTITLE2=Nana Mouskouri - Only Love
TTITLE3=The Platters - Only You
TTITLE4=Rod Stewart - Maggie May
TTITLE5=Connie Francis - Stupid Cupid
TTITLE6=The New Seekers - I'd Like To Teach The World To Sing
TTITLE7=Dusty Springfield - I Only Want To Be With You
TTITLE8=Hank Williams - Jambalaya
TTITLE9=Patti Page - Doggie In The Window
TTITLE10=The Grass Roots - Let's Live For Today
TTITLE11=Bill Haley and His Comets - Shake, Rattle And Roll
TTITLE12=Barrett Strong/ Money
TTITLE13=Tom Jones - Delilah
TTITLE14=The Mamas and The Papas - California Dreamin'
EXTD=
EXTT0=
EXTT1=
EXTT2=
EXTT3=
EXTT4=
EXTT5=
EXTT6=
EXTT7=
EXTT8=
EXTT9=
EXTT10=
EXTT11=
EXTT12=
EXTT13=
EXTT14=
PLAYORDER=
